<?xml version="1.0" encoding="UTF-8" standalone="no"?><svg xmlns="http://www.w3.org/2000/svg" xmlns:xlink="http://www.w3.org/1999/xlink" contentScriptType="application/ecmascript" contentStyleType="text/css" height="343px" preserveAspectRatio="none" style="width:928px;height:343px;" version="1.1" viewBox="0 0 928 343" width="928px" zoomAndPan="magnify"><defs><filter height="300%" id="f22khq2nqr3ne" width="300%" x="-1" y="-1"><feGaussianBlur result="blurOut" stdDeviation="2.0"/><feColorMatrix in="blurOut" result="blurOut2" type="matrix" values="0 0 0 0 0 0 0 0 0 0 0 0 0 0 0 0 0 0 .4 0"/><feOffset dx="4.0" dy="4.0" in="blurOut2" result="blurOut3"/><feBlend in="SourceGraphic" in2="blurOut3" mode="normal"/></filter></defs><g><!--MD5=[bff618dd535f4b3ac9350500f0dadfb3]
class DashboardComponent--><rect codeLine="1" fill="#FEFECE" filter="url(#f22khq2nqr3ne)" height="60.8047" id="DashboardComponent" style="stroke:#A80036;stroke-width:1.5;" width="167" x="318.5" y="191.5"/><ellipse cx="333.5" cy="207.5" fill="#ADD1B2" rx="11" ry="11" style="stroke:#A80036;stroke-width:1.0;"/><path d="M335.8438,203.1719 C334.9063,202.7344 334.3125,202.5938 333.4375,202.5938 C330.8125,202.5938 328.8125,204.6719 328.8125,207.3906 L328.8125,208.5156 C328.8125,211.0938 330.9219,212.9844 333.8125,212.9844 C335.0313,212.9844 336.1875,212.6875 336.9375,212.1406 C337.5156,211.7344 337.8438,211.2813 337.8438,210.8906 C337.8438,210.4375 337.4531,210.0469 336.9844,210.0469 C336.7656,210.0469 336.5625,210.125 336.375,210.3125 C335.9219,210.7969 335.9219,210.7969 335.7344,210.8906 C335.3125,211.1563 334.625,211.2813 333.8594,211.2813 C331.8125,211.2813 330.5156,210.1875 330.5156,208.4844 L330.5156,207.3906 C330.5156,205.6094 331.7656,204.2969 333.5,204.2969 C334.0781,204.2969 334.6875,204.4531 335.1563,204.7031 C335.6406,204.9844 335.8125,205.2031 335.9063,205.6094 C335.9688,206.0156 336,206.1406 336.1406,206.2656 C336.2813,206.4063 336.5156,206.5156 336.7344,206.5156 C337,206.5156 337.2656,206.375 337.4375,206.1563 C337.5469,206 337.5781,205.8125 337.5781,205.3906 L337.5781,203.9688 C337.5781,203.5313 337.5625,203.4063 337.4688,203.25 C337.3125,202.9844 337.0313,202.8438 336.7344,202.8438 C336.4375,202.8438 336.2344,202.9375 336.0156,203.25 L335.8438,203.1719 Z " fill="#000000"/><text fill="#000000" font-family="sans-serif" font-size="12" lengthAdjust="spacing" textLength="135" x="347.5" y="211.6543">DashboardComponent</text><line style="stroke:#A80036;stroke-width:1.5;" x1="319.5" x2="484.5" y1="223.5" y2="223.5"/><line style="stroke:#A80036;stroke-width:1.5;" x1="319.5" x2="484.5" y1="231.5" y2="231.5"/><ellipse cx="329.5" cy="242.5" fill="#84BE84" rx="3" ry="3" style="stroke:#038048;stroke-width:1.0;"/><text fill="#000000" font-family="sans-serif" font-size="11" lengthAdjust="spacing" textLength="86" x="338.5" y="245.7104">ngOnInit(): void</text><!--MD5=[102de254140a193826c5a7d2ce3cf539]
class OnInit--><rect fill="#FEFECE" filter="url(#f22khq2nqr3ne)" height="48" id="OnInit" style="stroke:#A80036;stroke-width:1.5;" width="69" x="563.5" y="7"/><ellipse cx="578.5" cy="23" fill="#B4A7E5" rx="11" ry="11" style="stroke:#A80036;stroke-width:1.0;"/><path d="M579.4531,19.7813 L581.1719,19.7813 C581.5625,19.7813 581.75,19.75 581.875,19.6719 C582.1406,19.5156 582.2813,19.2344 582.2813,18.9375 C582.2813,18.6719 582.1719,18.4063 581.9375,18.2344 C581.7656,18.125 581.625,18.0938 581.1719,18.0938 L576.0313,18.0938 C575.5938,18.0938 575.4688,18.1094 575.3125,18.2031 C575.0625,18.3594 574.9063,18.6563 574.9063,18.9375 C574.9063,19.2188 575.0469,19.4688 575.2656,19.6406 C575.4219,19.75 575.6094,19.7813 576.0313,19.7813 L577.75,19.7813 L577.75,26.2969 L576.0313,26.2969 C575.5938,26.2969 575.4688,26.3125 575.3125,26.4219 C575.0625,26.5781 574.9063,26.8594 574.9063,27.1563 C574.9063,27.4063 575.0469,27.6719 575.2656,27.8281 C575.4219,27.9531 575.625,28 576.0313,28 L581.1719,28 C581.9219,28 582.2813,27.7188 582.2813,27.1563 C582.2813,26.875 582.1719,26.625 581.9375,26.4531 C581.7656,26.3281 581.625,26.2969 581.1719,26.2969 L579.4531,26.2969 L579.4531,19.7813 Z " fill="#000000"/><text fill="#000000" font-family="sans-serif" font-size="12" font-style="italic" lengthAdjust="spacing" textLength="37" x="592.5" y="27.1543">OnInit</text><line style="stroke:#A80036;stroke-width:1.5;" x1="564.5" x2="631.5" y1="39" y2="39"/><line style="stroke:#A80036;stroke-width:1.5;" x1="564.5" x2="631.5" y1="47" y2="47"/><!--MD5=[008dad7ae4591cbf34998ffbc237fa25]
class ProdutosComponent--><rect codeLine="4" fill="#FEFECE" filter="url(#f22khq2nqr3ne)" height="60.8047" id="ProdutosComponent" style="stroke:#A80036;stroke-width:1.5;" width="154" x="521" y="191.5"/><ellipse cx="536" cy="207.5" fill="#ADD1B2" rx="11" ry="11" style="stroke:#A80036;stroke-width:1.0;"/><path d="M538.3438,203.1719 C537.4063,202.7344 536.8125,202.5938 535.9375,202.5938 C533.3125,202.5938 531.3125,204.6719 531.3125,207.3906 L531.3125,208.5156 C531.3125,211.0938 533.4219,212.9844 536.3125,212.9844 C537.5313,212.9844 538.6875,212.6875 539.4375,212.1406 C540.0156,211.7344 540.3438,211.2813 540.3438,210.8906 C540.3438,210.4375 539.9531,210.0469 539.4844,210.0469 C539.2656,210.0469 539.0625,210.125 538.875,210.3125 C538.4219,210.7969 538.4219,210.7969 538.2344,210.8906 C537.8125,211.1563 537.125,211.2813 536.3594,211.2813 C534.3125,211.2813 533.0156,210.1875 533.0156,208.4844 L533.0156,207.3906 C533.0156,205.6094 534.2656,204.2969 536,204.2969 C536.5781,204.2969 537.1875,204.4531 537.6563,204.7031 C538.1406,204.9844 538.3125,205.2031 538.4063,205.6094 C538.4688,206.0156 538.5,206.1406 538.6406,206.2656 C538.7813,206.4063 539.0156,206.5156 539.2344,206.5156 C539.5,206.5156 539.7656,206.375 539.9375,206.1563 C540.0469,206 540.0781,205.8125 540.0781,205.3906 L540.0781,203.9688 C540.0781,203.5313 540.0625,203.4063 539.9688,203.25 C539.8125,202.9844 539.5313,202.8438 539.2344,202.8438 C538.9375,202.8438 538.7344,202.9375 538.5156,203.25 L538.3438,203.1719 Z " fill="#000000"/><text fill="#000000" font-family="sans-serif" font-size="12" lengthAdjust="spacing" textLength="122" x="550" y="211.6543">ProdutosComponent</text><line style="stroke:#A80036;stroke-width:1.5;" x1="522" x2="674" y1="223.5" y2="223.5"/><line style="stroke:#A80036;stroke-width:1.5;" x1="522" x2="674" y1="231.5" y2="231.5"/><ellipse cx="532" cy="242.5" fill="#84BE84" rx="3" ry="3" style="stroke:#038048;stroke-width:1.0;"/><text fill="#000000" font-family="sans-serif" font-size="11" lengthAdjust="spacing" textLength="86" x="541" y="245.7104">ngOnInit(): void</text><!--MD5=[e2b13eca079c238cde1537dc7ebe443a]
class PagesRoutingModule--><rect codeLine="7" fill="#FEFECE" filter="url(#f22khq2nqr3ne)" height="48" id="PagesRoutingModule" style="stroke:#A80036;stroke-width:1.5;" width="156" x="7" y="7"/><ellipse cx="22" cy="23" fill="#ADD1B2" rx="11" ry="11" style="stroke:#A80036;stroke-width:1.0;"/><path d="M24.3438,18.6719 C23.4063,18.2344 22.8125,18.0938 21.9375,18.0938 C19.3125,18.0938 17.3125,20.1719 17.3125,22.8906 L17.3125,24.0156 C17.3125,26.5938 19.4219,28.4844 22.3125,28.4844 C23.5313,28.4844 24.6875,28.1875 25.4375,27.6406 C26.0156,27.2344 26.3438,26.7813 26.3438,26.3906 C26.3438,25.9375 25.9531,25.5469 25.4844,25.5469 C25.2656,25.5469 25.0625,25.625 24.875,25.8125 C24.4219,26.2969 24.4219,26.2969 24.2344,26.3906 C23.8125,26.6563 23.125,26.7813 22.3594,26.7813 C20.3125,26.7813 19.0156,25.6875 19.0156,23.9844 L19.0156,22.8906 C19.0156,21.1094 20.2656,19.7969 22,19.7969 C22.5781,19.7969 23.1875,19.9531 23.6563,20.2031 C24.1406,20.4844 24.3125,20.7031 24.4063,21.1094 C24.4688,21.5156 24.5,21.6406 24.6406,21.7656 C24.7813,21.9063 25.0156,22.0156 25.2344,22.0156 C25.5,22.0156 25.7656,21.875 25.9375,21.6563 C26.0469,21.5 26.0781,21.3125 26.0781,20.8906 L26.0781,19.4688 C26.0781,19.0313 26.0625,18.9063 25.9688,18.75 C25.8125,18.4844 25.5313,18.3438 25.2344,18.3438 C24.9375,18.3438 24.7344,18.4375 24.5156,18.75 L24.3438,18.6719 Z " fill="#000000"/><text fill="#000000" font-family="sans-serif" font-size="12" lengthAdjust="spacing" textLength="124" x="36" y="27.1543">PagesRoutingModule</text><line style="stroke:#A80036;stroke-width:1.5;" x1="8" x2="162" y1="39" y2="39"/><line style="stroke:#A80036;stroke-width:1.5;" x1="8" x2="162" y1="47" y2="47"/><!--MD5=[270a9a105b312c9d35a071bccf13cdc0]
class TopBarComponent--><rect codeLine="8" fill="#FEFECE" filter="url(#f22khq2nqr3ne)" height="214.4609" id="TopBarComponent" style="stroke:#A80036;stroke-width:1.5;" width="204" x="710" y="115"/><ellipse cx="752" cy="131" fill="#ADD1B2" rx="11" ry="11" style="stroke:#A80036;stroke-width:1.0;"/><path d="M754.3438,126.6719 C753.4063,126.2344 752.8125,126.0938 751.9375,126.0938 C749.3125,126.0938 747.3125,128.1719 747.3125,130.8906 L747.3125,132.0156 C747.3125,134.5938 749.4219,136.4844 752.3125,136.4844 C753.5313,136.4844 754.6875,136.1875 755.4375,135.6406 C756.0156,135.2344 756.3438,134.7813 756.3438,134.3906 C756.3438,133.9375 755.9531,133.5469 755.4844,133.5469 C755.2656,133.5469 755.0625,133.625 754.875,133.8125 C754.4219,134.2969 754.4219,134.2969 754.2344,134.3906 C753.8125,134.6563 753.125,134.7813 752.3594,134.7813 C750.3125,134.7813 749.0156,133.6875 749.0156,131.9844 L749.0156,130.8906 C749.0156,129.1094 750.2656,127.7969 752,127.7969 C752.5781,127.7969 753.1875,127.9531 753.6563,128.2031 C754.1406,128.4844 754.3125,128.7031 754.4063,129.1094 C754.4688,129.5156 754.5,129.6406 754.6406,129.7656 C754.7813,129.9063 755.0156,130.0156 755.2344,130.0156 C755.5,130.0156 755.7656,129.875 755.9375,129.6563 C756.0469,129.5 756.0781,129.3125 756.0781,128.8906 L756.0781,127.4688 C756.0781,127.0313 756.0625,126.9063 755.9688,126.75 C755.8125,126.4844 755.5313,126.3438 755.2344,126.3438 C754.9375,126.3438 754.7344,126.4375 754.5156,126.75 L754.3438,126.6719 Z " fill="#000000"/><text fill="#000000" font-family="sans-serif" font-size="12" lengthAdjust="spacing" textLength="112" x="772" y="135.1543">TopBarComponent</text><line style="stroke:#A80036;stroke-width:1.5;" x1="711" x2="913" y1="147" y2="147"/><ellipse cx="721" cy="158" rx="3" ry="3" style="stroke:#038048;stroke-width:1.0;fill:none;"/><text fill="#000000" font-family="sans-serif" font-size="11" lengthAdjust="spacing" textLength="125" x="730" y="161.2104">hasBackdrop: boolean</text><rect fill="none" height="6" style="stroke:#C82930;stroke-width:1.0;" width="6" x="718" y="167.8047"/><text fill="#000000" font-family="sans-serif" font-size="11" lengthAdjust="spacing" textLength="85" x="730" y="174.0151">document: any</text><ellipse cx="721" cy="183.6094" rx="3" ry="3" style="stroke:#038048;stroke-width:1.0;fill:none;"/><text fill="#000000" font-family="sans-serif" font-size="11" lengthAdjust="spacing" textLength="89" x="730" y="186.8198">configData: any</text><ellipse cx="721" cy="196.4141" rx="3" ry="3" style="stroke:#038048;stroke-width:1.0;fill:none;"/><text fill="#000000" font-family="sans-serif" font-size="11" lengthAdjust="spacing" textLength="77" x="730" y="199.6245">element: any</text><ellipse cx="721" cy="209.2188" rx="3" ry="3" style="stroke:#038048;stroke-width:1.0;fill:none;"/><text fill="#000000" font-family="sans-serif" font-size="11" lengthAdjust="spacing" textLength="98" x="730" y="212.4292">cookieValue: any</text><ellipse cx="721" cy="222.0234" rx="3" ry="3" style="stroke:#038048;stroke-width:1.0;fill:none;"/><text fill="#000000" font-family="sans-serif" font-size="11" lengthAdjust="spacing" textLength="81" x="730" y="225.2339">flagvalue: any</text><ellipse cx="721" cy="234.8281" rx="3" ry="3" style="stroke:#038048;stroke-width:1.0;fill:none;"/><text fill="#000000" font-family="sans-serif" font-size="11" lengthAdjust="spacing" textLength="104" x="730" y="238.0386">countryName: any</text><ellipse cx="721" cy="247.6328" rx="3" ry="3" style="stroke:#038048;stroke-width:1.0;fill:none;"/><text fill="#000000" font-family="sans-serif" font-size="11" lengthAdjust="spacing" textLength="88" x="730" y="250.8433">valueset: string</text><line style="stroke:#A80036;stroke-width:1.5;" x1="711" x2="913" y1="257.4375" y2="257.4375"/><ellipse cx="721" cy="268.4375" fill="#84BE84" rx="3" ry="3" style="stroke:#038048;stroke-width:1.0;"/><text fill="#000000" font-family="sans-serif" font-size="11" lengthAdjust="spacing" textLength="86" x="730" y="271.6479">ngOnInit(): void</text><ellipse cx="721" cy="281.2422" fill="#84BE84" rx="3" ry="3" style="stroke:#038048;stroke-width:1.0;"/><text fill="#000000" font-family="sans-serif" font-size="11" lengthAdjust="spacing" textLength="95" x="730" y="284.4526">fullscreen(): void</text><ellipse cx="721" cy="294.0469" fill="#84BE84" rx="3" ry="3" style="stroke:#038048;stroke-width:1.0;"/><text fill="#000000" font-family="sans-serif" font-size="11" lengthAdjust="spacing" textLength="124" x="730" y="297.2573">toggleMenubar(): void</text><ellipse cx="721" cy="306.8516" fill="#84BE84" rx="3" ry="3" style="stroke:#038048;stroke-width:1.0;"/><text fill="#000000" font-family="sans-serif" font-size="11" lengthAdjust="spacing" textLength="178" x="730" y="310.062">onSettingsButtonClicked(): void</text><ellipse cx="721" cy="319.6563" fill="#84BE84" rx="3" ry="3" style="stroke:#038048;stroke-width:1.0;"/><text fill="#000000" font-family="sans-serif" font-size="11" lengthAdjust="spacing" textLength="74" x="730" y="322.8667">logout(): void</text><!--MD5=[9674bb3c32fd6fed4557c1363abaa7b4]
class PagesModule--><rect codeLine="23" fill="#FEFECE" filter="url(#f22khq2nqr3ne)" height="48" id="PagesModule" style="stroke:#A80036;stroke-width:1.5;" width="112" x="198" y="7"/><ellipse cx="213" cy="23" fill="#ADD1B2" rx="11" ry="11" style="stroke:#A80036;stroke-width:1.0;"/><path d="M215.3438,18.6719 C214.4063,18.2344 213.8125,18.0938 212.9375,18.0938 C210.3125,18.0938 208.3125,20.1719 208.3125,22.8906 L208.3125,24.0156 C208.3125,26.5938 210.4219,28.4844 213.3125,28.4844 C214.5313,28.4844 215.6875,28.1875 216.4375,27.6406 C217.0156,27.2344 217.3438,26.7813 217.3438,26.3906 C217.3438,25.9375 216.9531,25.5469 216.4844,25.5469 C216.2656,25.5469 216.0625,25.625 215.875,25.8125 C215.4219,26.2969 215.4219,26.2969 215.2344,26.3906 C214.8125,26.6563 214.125,26.7813 213.3594,26.7813 C211.3125,26.7813 210.0156,25.6875 210.0156,23.9844 L210.0156,22.8906 C210.0156,21.1094 211.2656,19.7969 213,19.7969 C213.5781,19.7969 214.1875,19.9531 214.6563,20.2031 C215.1406,20.4844 215.3125,20.7031 215.4063,21.1094 C215.4688,21.5156 215.5,21.6406 215.6406,21.7656 C215.7813,21.9063 216.0156,22.0156 216.2344,22.0156 C216.5,22.0156 216.7656,21.875 216.9375,21.6563 C217.0469,21.5 217.0781,21.3125 217.0781,20.8906 L217.0781,19.4688 C217.0781,19.0313 217.0625,18.9063 216.9688,18.75 C216.8125,18.4844 216.5313,18.3438 216.2344,18.3438 C215.9375,18.3438 215.7344,18.4375 215.5156,18.75 L215.3438,18.6719 Z " fill="#000000"/><text fill="#000000" font-family="sans-serif" font-size="12" lengthAdjust="spacing" textLength="80" x="227" y="27.1543">PagesModule</text><line style="stroke:#A80036;stroke-width:1.5;" x1="199" x2="309" y1="39" y2="39"/><line style="stroke:#A80036;stroke-width:1.5;" x1="199" x2="309" y1="47" y2="47"/><!--MD5=[aac6b132d14d1cacd31e46ffab5b991f]
class AppRoutingModule--><rect codeLine="24" fill="#FEFECE" filter="url(#f22khq2nqr3ne)" height="48" id="AppRoutingModule" style="stroke:#A80036;stroke-width:1.5;" width="144" x="345" y="7"/><ellipse cx="360" cy="23" fill="#ADD1B2" rx="11" ry="11" style="stroke:#A80036;stroke-width:1.0;"/><path d="M362.3438,18.6719 C361.4063,18.2344 360.8125,18.0938 359.9375,18.0938 C357.3125,18.0938 355.3125,20.1719 355.3125,22.8906 L355.3125,24.0156 C355.3125,26.5938 357.4219,28.4844 360.3125,28.4844 C361.5313,28.4844 362.6875,28.1875 363.4375,27.6406 C364.0156,27.2344 364.3438,26.7813 364.3438,26.3906 C364.3438,25.9375 363.9531,25.5469 363.4844,25.5469 C363.2656,25.5469 363.0625,25.625 362.875,25.8125 C362.4219,26.2969 362.4219,26.2969 362.2344,26.3906 C361.8125,26.6563 361.125,26.7813 360.3594,26.7813 C358.3125,26.7813 357.0156,25.6875 357.0156,23.9844 L357.0156,22.8906 C357.0156,21.1094 358.2656,19.7969 360,19.7969 C360.5781,19.7969 361.1875,19.9531 361.6563,20.2031 C362.1406,20.4844 362.3125,20.7031 362.4063,21.1094 C362.4688,21.5156 362.5,21.6406 362.6406,21.7656 C362.7813,21.9063 363.0156,22.0156 363.2344,22.0156 C363.5,22.0156 363.7656,21.875 363.9375,21.6563 C364.0469,21.5 364.0781,21.3125 364.0781,20.8906 L364.0781,19.4688 C364.0781,19.0313 364.0625,18.9063 363.9688,18.75 C363.8125,18.4844 363.5313,18.3438 363.2344,18.3438 C362.9375,18.3438 362.7344,18.4375 362.5156,18.75 L362.3438,18.6719 Z " fill="#000000"/><text fill="#000000" font-family="sans-serif" font-size="12" lengthAdjust="spacing" textLength="112" x="374" y="27.1543">AppRoutingModule</text><line style="stroke:#A80036;stroke-width:1.5;" x1="346" x2="488" y1="39" y2="39"/><line style="stroke:#A80036;stroke-width:1.5;" x1="346" x2="488" y1="47" y2="47"/><!--MD5=[ddea70da627106f10bdcaaa15f7d8af7]
class AppComponent--><rect codeLine="25" fill="#FEFECE" filter="url(#f22khq2nqr3ne)" height="60.8047" id="AppComponent" style="stroke:#A80036;stroke-width:1.5;" width="125" x="22.5" y="191.5"/><ellipse cx="37.5" cy="207.5" fill="#ADD1B2" rx="11" ry="11" style="stroke:#A80036;stroke-width:1.0;"/><path d="M39.8438,203.1719 C38.9063,202.7344 38.3125,202.5938 37.4375,202.5938 C34.8125,202.5938 32.8125,204.6719 32.8125,207.3906 L32.8125,208.5156 C32.8125,211.0938 34.9219,212.9844 37.8125,212.9844 C39.0313,212.9844 40.1875,212.6875 40.9375,212.1406 C41.5156,211.7344 41.8438,211.2813 41.8438,210.8906 C41.8438,210.4375 41.4531,210.0469 40.9844,210.0469 C40.7656,210.0469 40.5625,210.125 40.375,210.3125 C39.9219,210.7969 39.9219,210.7969 39.7344,210.8906 C39.3125,211.1563 38.625,211.2813 37.8594,211.2813 C35.8125,211.2813 34.5156,210.1875 34.5156,208.4844 L34.5156,207.3906 C34.5156,205.6094 35.7656,204.2969 37.5,204.2969 C38.0781,204.2969 38.6875,204.4531 39.1563,204.7031 C39.6406,204.9844 39.8125,205.2031 39.9063,205.6094 C39.9688,206.0156 40,206.1406 40.1406,206.2656 C40.2813,206.4063 40.5156,206.5156 40.7344,206.5156 C41,206.5156 41.2656,206.375 41.4375,206.1563 C41.5469,206 41.5781,205.8125 41.5781,205.3906 L41.5781,203.9688 C41.5781,203.5313 41.5625,203.4063 41.4688,203.25 C41.3125,202.9844 41.0313,202.8438 40.7344,202.8438 C40.4375,202.8438 40.2344,202.9375 40.0156,203.25 L39.8438,203.1719 Z " fill="#000000"/><text fill="#000000" font-family="sans-serif" font-size="12" lengthAdjust="spacing" textLength="93" x="51.5" y="211.6543">AppComponent</text><line style="stroke:#A80036;stroke-width:1.5;" x1="23.5" x2="146.5" y1="223.5" y2="223.5"/><ellipse cx="33.5" cy="234.5" rx="3" ry="3" style="stroke:#038048;stroke-width:1.0;fill:none;"/><text fill="#000000" font-family="sans-serif" font-size="11" lengthAdjust="spacing" textLength="60" x="42.5" y="237.7104">title: string</text><line style="stroke:#A80036;stroke-width:1.5;" x1="23.5" x2="146.5" y1="244.3047" y2="244.3047"/><!--MD5=[58cce8e5c3db329f74602bb34e949653]
class AppModule--><rect codeLine="28" fill="#FEFECE" filter="url(#f22khq2nqr3ne)" height="48" id="AppModule" style="stroke:#A80036;stroke-width:1.5;" width="100" x="183" y="198"/><ellipse cx="198" cy="214" fill="#ADD1B2" rx="11" ry="11" style="stroke:#A80036;stroke-width:1.0;"/><path d="M200.3438,209.6719 C199.4063,209.2344 198.8125,209.0938 197.9375,209.0938 C195.3125,209.0938 193.3125,211.1719 193.3125,213.8906 L193.3125,215.0156 C193.3125,217.5938 195.4219,219.4844 198.3125,219.4844 C199.5313,219.4844 200.6875,219.1875 201.4375,218.6406 C202.0156,218.2344 202.3438,217.7813 202.3438,217.3906 C202.3438,216.9375 201.9531,216.5469 201.4844,216.5469 C201.2656,216.5469 201.0625,216.625 200.875,216.8125 C200.4219,217.2969 200.4219,217.2969 200.2344,217.3906 C199.8125,217.6563 199.125,217.7813 198.3594,217.7813 C196.3125,217.7813 195.0156,216.6875 195.0156,214.9844 L195.0156,213.8906 C195.0156,212.1094 196.2656,210.7969 198,210.7969 C198.5781,210.7969 199.1875,210.9531 199.6563,211.2031 C200.1406,211.4844 200.3125,211.7031 200.4063,212.1094 C200.4688,212.5156 200.5,212.6406 200.6406,212.7656 C200.7813,212.9063 201.0156,213.0156 201.2344,213.0156 C201.5,213.0156 201.7656,212.875 201.9375,212.6563 C202.0469,212.5 202.0781,212.3125 202.0781,211.8906 L202.0781,210.4688 C202.0781,210.0313 202.0625,209.9063 201.9688,209.75 C201.8125,209.4844 201.5313,209.3438 201.2344,209.3438 C200.9375,209.3438 200.7344,209.4375 200.5156,209.75 L200.3438,209.6719 Z " fill="#000000"/><text fill="#000000" font-family="sans-serif" font-size="12" lengthAdjust="spacing" textLength="68" x="212" y="218.1543">AppModule</text><line style="stroke:#A80036;stroke-width:1.5;" x1="184" x2="282" y1="230" y2="230"/><line style="stroke:#A80036;stroke-width:1.5;" x1="184" x2="282" y1="238" y2="238"/><!--MD5=[e1a6fe1b63443398d3e434ae4e0fd683]
reverse link OnInit to DashboardComponent--><path d="M554.713,68.357 C538.227,82.581 519.456,99.239 503,115 C477.116,139.791 449.105,169.429 429.163,191.054 " fill="none" id="OnInit-backto-DashboardComponent" style="stroke:#A80036;stroke-width:1.0;stroke-dasharray:7.0,7.0;"/><polygon fill="none" points="550.215,62.993,569.968,55.322,559.31,73.636,550.215,62.993" style="stroke:#A80036;stroke-width:1.0;"/><!--MD5=[254412517292a4dca1de0758d7a804bb]
reverse link OnInit to ProdutosComponent--><path d="M598,75.232 C598,110.788 598,160.23 598,191.417 " fill="none" id="OnInit-backto-ProdutosComponent" style="stroke:#A80036;stroke-width:1.0;stroke-dasharray:7.0,7.0;"/><polygon fill="none" points="591,75.175,598,55.175,605,75.175,591,75.175" style="stroke:#A80036;stroke-width:1.0;"/><!--MD5=[9d71d3f51ce16cf59bb0f3cff3b7231f]
reverse link OnInit to TopBarComponent--><path d="M639.908,68.462 C656.476,82.916 675.665,99.708 693,115 C698.498,119.85 704.133,124.832 709.818,129.867 " fill="none" id="OnInit-backto-TopBarComponent" style="stroke:#A80036;stroke-width:1.0;stroke-dasharray:7.0,7.0;"/><polygon fill="none" points="635.155,73.605,624.677,55.187,644.353,63.05,635.155,73.605" style="stroke:#A80036;stroke-width:1.0;"/><!--MD5=[b4c88a1c8da44aea7bc20630bb4288b3]
link PagesRoutingModule to PagesModule--><!--MD5=[82cc87ad7860d45666d787721a34285a]
link PagesModule to AppRoutingModule--><!--MD5=[48efb01ea823eefc15108cb085feb001]
link PagesRoutingModule to AppComponent--><!--MD5=[edc517fe1b1d40ae846c8c4415a41db0]
link AppComponent to AppModule--><!--MD5=[4300ddeab8db9ca2fde0182403d24cda]
@startuml
class DashboardComponent implements OnInit {
    +ngOnInit(): void
}
class ProdutosComponent implements OnInit {
    +ngOnInit(): void
}
class PagesRoutingModule
class TopBarComponent implements OnInit {
    +hasBackdrop: boolean
    -document: any
    +configData: any
    +element: any
    +cookieValue: any
    +flagvalue: any
    +countryName: any
    +valueset: string
    +ngOnInit(): void
    +fullscreen(): void
    +toggleMenubar(): void
    +onSettingsButtonClicked(): void
    +logout(): void
}
class PagesModule
class AppRoutingModule
class AppComponent {
    +title: string
}
class AppModule
@enduml

PlantUML version 1.2021.5beta3(Unknown compile time)
(GPL source distribution)
Java Runtime: Java(TM) SE Runtime Environment
JVM: Java HotSpot(TM) 64-Bit Server VM
Default Encoding: UTF-8
Language: en
Country: US
--></g></svg>